<svg xmlns="http://www.w3.org/2000/svg" fill="none" viewBox="0 0 128 18"><mask id="a" width="25" height="15" x="1" y="1" maskUnits="userSpaceOnUse" style="mask-type:alpha"><path fill="#fff" fill-rule="evenodd" d="M15.394 1.128a1.827 1.827 0 0 0 0 3.655h6.09a3.655 3.655 0 0 0 3.655-3.655zM10.897 6.75a3.373 3.373 0 0 0-3.374 3.373H20.55a3.374 3.374 0 0 0 3.373-3.373zm-8.9 8.994a3.655 3.655 0 0 1 3.654-3.654h6.09a1.827 1.827 0 0 1 0 3.654zm15.225-3.654a1.827 1.827 0 1 0 0 3.654h1.218a3.046 3.046 0 0 0 3.046-3.045v-.61z" clip-rule="evenodd"/></mask><g mask="url(#a)"><path fill="#fff" d="M13.57 2.955c0-1.009.818-1.827 1.828-1.827h9.745a3.655 3.655 0 0 1-3.654 3.655h-6.091a1.827 1.827 0 0 1-1.828-1.828"/><path fill="url(#b)" d="M13.57 2.955c0-1.009.818-1.827 1.828-1.827h9.745a3.655 3.655 0 0 1-3.654 3.655h-6.091a1.827 1.827 0 0 1-1.828-1.828"/><path fill="url(#c)" d="M7.523 10.121a3.373 3.373 0 0 1 3.374-3.373h13.025a3.373 3.373 0 0 1-3.373 3.373z"/><path fill="#D7613A" d="M1.996 15.742a3.655 3.655 0 0 1 3.655-3.654h6.09a1.827 1.827 0 1 1 0 3.655z"/><path fill="url(#d)" d="M15.395 13.915c0-1.009.818-1.827 1.827-1.827h4.264v.609a3.046 3.046 0 0 1-3.046 3.046h-1.218a1.827 1.827 0 0 1-1.828-1.828z"/></g><path fill="url(#e)" fill-rule="evenodd" d="M42.183 8.497h-6.929a.23.23 0 0 0-.22.176l-.35 1.688c-.022.088.044.176.132.176h4.232c-.702 3.113-2.259 4.275-4.65 4.275-2.543 0-3.902-1.71-3.902-4.297 0-3.947 2.368-7.39 5.767-7.39 1.907 0 3.289 1.074 3.53 2.938.022.11.11.176.197.176h2.413a.19.19 0 0 0 .175-.176C42.337 2.906 39.793.998 36.416.998c-4.955 0-8.705 4.408-8.705 9.517 0 3.925 2.5 6.446 6.49 6.446 4.123 0 7.061-2.368 8.136-8.288 0-.088-.066-.176-.154-.176m2.296 8.157h-2.28a.14.14 0 0 1-.132-.175l1.82-7.543L45.53 1.48c.022-.11.132-.175.22-.175h2.28a.14.14 0 0 1 .132.175l-1.798 7.456-1.667 7.543c-.022.11-.132.175-.22.175zm39.637 0h-2.39a.14.14 0 0 1-.132-.175l1.82-7.5L85.06 1.48c.022-.11.131-.175.219-.175h9.538a.14.14 0 0 1 .132.175l-.373 1.754c-.022.11-.131.176-.219.176h-6.995l-1.206 4.736h6.732c.088 0 .153.088.131.176l-.372 1.754c-.022.11-.132.175-.22.175h-6.731l-1.36 6.228c-.022.11-.131.175-.22.175m8.88 0h2.28c.087 0 .197-.066.219-.175l1.666-7.543L98.96 1.48a.14.14 0 0 0-.132-.175h-2.28c-.088 0-.198.065-.22.175l-1.644 7.456-1.82 7.543c-.022.087.043.175.131.175zm5.164-4.495c0-4.1 2.675-7.06 6.447-7.06 2.938 0 4.934 1.82 4.934 4.736 0 3.99-2.632 7.083-6.403 7.083-2.917 0-4.978-1.82-4.978-4.759m2.675.176c0 1.776.856 2.719 2.39 2.719 2.193 0 3.64-2.04 3.64-5.329 0-1.798-.899-2.763-2.39-2.763-2.192 0-3.64 2.106-3.64 5.373m20.269 4.32h-2.741a.19.19 0 0 1-.175-.175V7.467l-3.947 9.035a.27.27 0 0 1-.241.153h-2.741c-.088 0-.176-.088-.176-.175l-.153-10.942c0-.088.087-.176.175-.176h2.061a.19.19 0 0 1 .176.176l-.373 9.056 3.969-9.078a.27.27 0 0 1 .241-.154h2.829c.087 0 .175.088.175.176l-.175 8.837 3.793-8.86a.27.27 0 0 1 .241-.153h2.347c.087 0 .131.088.109.154l-5.153 10.986a.27.27 0 0 1-.241.153m-44.14-6.704c-1.333-.359-2.496-.672-2.496-1.563 0-.855.79-1.579 2.17-1.579 1.47 0 2.369.724 2.39 1.82 0 .11.088.175.176.175h2.105c.088 0 .176-.087.198-.175.131-2.368-2.237-3.53-4.715-3.53-3.223 0-4.978 1.732-4.978 3.552 0 2.245 2.113 2.836 3.906 3.338 1.325.37 2.475.692 2.475 1.596 0 .877-.745 1.579-2.192 1.579-1.798 0-2.873-.812-2.829-2.193a.19.19 0 0 0-.175-.176h-2.215c-.088 0-.198.088-.198.176-.263 2.39 2.084 3.947 5.241 3.947 3.004 0 5-1.623 5-3.794 0-2.133-2.082-2.694-3.864-3.173zM63.17 8.388c0 .89 1.164 1.204 2.495 1.563 1.782.48 3.864 1.04 3.864 3.173 0 2.171-1.996 3.794-5 3.794-3.157 0-5.504-1.557-5.24-3.947 0-.088.11-.176.197-.176h2.215c.087 0 .175.088.175.176-.044 1.381 1.03 2.193 2.829 2.193 1.447 0 2.193-.702 2.193-1.58 0-.903-1.151-1.225-2.475-1.595-1.794-.502-3.906-1.093-3.906-3.338 0-1.82 1.754-3.552 4.977-3.552 2.478 0 4.846 1.162 4.715 3.53-.022.088-.11.175-.198.175h-2.105a.173.173 0 0 1-.175-.175c-.022-1.096-.921-1.82-2.39-1.82-1.382 0-2.171.724-2.171 1.579m-10.814 6.6c-1.951.023-2.763-1.688-2.105-4.473.483-2.127 1.535-3.42 3.136-3.486h.35c1.777.088 2.61 1.644 1.952 4.495-.57 2.303-1.732 3.487-3.333 3.465zm2.193 1.667h2.302c.088 0 .198-.066.22-.175l1.206-5.504 1.315-5.438c.022-.088-.044-.176-.131-.176h-2.325c-.087 0-.197.066-.219.176l-.35 1.71c-.593-1.36-1.843-2.083-3.531-2.083-3.048 0-4.824 2.412-5.438 5.065-.921 3.882.767 6.622 3.793 6.622 1.338 0 2.434-.526 3.311-1.425l-.285 1.053c-.021.087.044.175.132.175" clip-rule="evenodd"/><defs><linearGradient id="b" x1="13.57" x2="25.143" y1="2.955" y2="2.955" gradientUnits="userSpaceOnUse"><stop stop-color="#D7613A"/><stop offset=".59" stop-color="#DC8946"/><stop offset="1" stop-color="#F9C078"/></linearGradient><linearGradient id="c" x1="7.523" x2="23.922" y1="8.435" y2="8.435" gradientUnits="userSpaceOnUse"><stop stop-color="#D7613A"/><stop offset=".59" stop-color="#DC8946"/><stop offset="1" stop-color="#F9C078"/></linearGradient><linearGradient id="d" x1="15.395" x2="21.486" y1="13.915" y2="13.915" gradientUnits="userSpaceOnUse"><stop stop-color="#D7613A"/><stop offset=".59" stop-color="#DC8946"/><stop offset="1" stop-color="#F9C078"/></linearGradient><linearGradient id="e" x1="33.237" x2="140.796" y1="17.045" y2="-17.001" gradientUnits="userSpaceOnUse"><stop stop-color="#E0E0E3"/><stop offset="1" stop-color="#fff"/></linearGradient></defs></svg>