<?xml version="1.0" encoding="UTF-8"?>
<svg id="Layer_2" data-name="Layer 2" xmlns="http://www.w3.org/2000/svg" viewBox="0 0 458.14 91.83">
  <defs>
    <style>
      .cls-1 {
        fill: #1501f4;
      }
    </style>
  </defs>
  <g id="Layer_2-2" data-name="Layer 2">
    <g>
      <path class="cls-1" d="M457.93,37.93c-.59-6.32-2.11-11-4.64-14.32-1.51-1.99-6.12-8.13-17.8-8.13-6.87,0-13.58,4.22-16.27,10.78-.15.35-.82,2.34-.86,2.6V0h-14.41v74.76h15.56v-28.76c0-3.44.38-6.23,1.14-8.29.75-2.03,1.78-3.52,2.86-4.62,2.81-2.86,6.32-3.15,7.49-3.15,6.93,0,11.31,4.74,11.52,12.6.05,1.99.08,3.7.08,4.97v27.26h15.56v-32.28c0-1.07-.02-2.55-.21-4.55Z"/>
      <path class="cls-1" d="M301.06,33.59c-.22-2.31-.91-4.64-2.06-6.94-2.06-4.15-5.14-7.45-9.16-9.18-4.01-1.72-8.72-2.22-13.64-2.22-19.33,0-23.79,14.75-24.18,16.42l-.12.51,13.58,3.66c.45-5.3,4.87-9.14,10.43-9,7.37.18,10.91,4.51,10.91,12.58,0,0-14.49-2.33-24.77,1.13-3.15,1.06-5.64,2.6-7.5,4.31-1.87,1.73-3.24,3.74-4.08,6-.83,2.24-1.25,4.74-1.25,7.43,0,3.25.76,6.27,2.26,8.96,1.51,2.71,3.75,4.89,6.66,6.5,2.91,1.61,6.49,2.42,10.65,2.42,8.37,0,16.13-3.98,18.9-9.43l-.05,7.84h13.73v-33.43c0-2.78-.11-5.33-.32-7.59ZM286.01,51.27c0,6.14-3.82,12.5-13.64,12.5-3.03,0-7.97-1.36-7.97-6.91,0-12.68,19.77-8.5,21.62-8.28.02.08,0,1.72,0,2.69Z"/>
      <g>
        <path class="cls-1" d="M222.87,15.64c-3.84,0-12.8,1.59-16.82,12.54-2.54-11.59-11.47-12.52-16.54-12.52-3.98,0-13.08,1.89-16.91,12.86v-11.48h-13.67v57.65h15.45v-34.8c0-3.09.86-5.64,2.56-7.57,1.7-1.94,3.9-2.88,6.73-2.88s5.22.96,6.88,2.92c1.67,1.97,2.51,4.78,2.51,8.36v33.96h15.35v-34.8c0-2.07.39-3.92,1.17-5.49.77-1.56,1.86-2.79,3.23-3.65,1.37-.86,3.02-1.3,4.89-1.3,2.96,0,5.22.96,6.88,2.92,1.67,1.97,2.51,4.78,2.51,8.36v33.96h15.35v-35.91c0-17.51-10.42-23.15-19.58-23.15Z"/>
        <path class="cls-1" d="M389.85,43.74c-2.67-1.5-6.25-2.83-10.64-3.96-3.21-.8-5.77-1.53-7.84-2.12-.79-.23-1.5-.43-2.12-.6-4.94-1.35-4.9-4.55-4.9-5.54,0-3.64,4.34-5.18,8.52-5,8.63.37,9.33,8.63,9.33,8.63l14.64-1.58-.05-.52c-.32-3.53-1.95-6.95-4.12-9.54-2.16-2.57-5.03-4.58-8.52-5.97-3.47-1.38-7.5-2.08-11.99-2.08s-8.71.75-12.13,2.22c-3.45,1.48-6.16,3.63-8.06,6.37-1.91,2.75-2.87,6.04-2.87,9.77,0,2.98.64,5.57,1.91,7.69,1.27,2.12,3.35,3.96,6.18,5.47,2.78,1.48,6.5,2.84,11.2,4.03,4.39,1.15,13.64,3.16,13.64,7.85,0,0,.51,5.91-7.65,5.91-9.22,0-12.05-6.46-12.58-9.21l-.1-.52-14.61,1.38.07.55c.73,6.05,3.78,11.05,8.26,14.35,4.46,3.29,10.36,4.95,17.68,4.95s13.66-1.71,18-5.09c4.37-3.41,6.59-8.15,6.59-14.1,0-3.02-.63-5.64-1.88-7.79-1.25-2.15-3.26-4.02-5.98-5.55Z"/>
        <path class="cls-1" d="M325.13,29.33c-.13.44-.45,1.51-.55,2.08v-14.37h-13.67v57.65h15.45v-30.01c0-2.1.29-4,.86-5.66.57-1.65,1.41-3.1,2.5-4.31,1.09-1.21,2.46-2.2,4.07-2.94,1.61-.77,3.44-1.24,5.43-1.39,1.58-.12,3.04-.04,4.32.23l.67.14v-14.3l-.51-.04c-2.45-.2-14.87.09-18.58,12.91Z"/>
      </g>
      <path class="cls-1" d="M7.48,8.15v22.77c3.95-1.2,8.14-1.85,12.48-1.85,23.64,0,42.8,19.16,42.8,42.8,0,3.98-.55,7.83-1.57,11.48h21.5V8.15H7.48Z"/>
      <circle class="cls-1" cx="19.95" cy="71.88" r="19.95"/>
      <path class="cls-1" d="M144.57,43.76c-2.67-1.5-6.25-2.83-10.64-3.96-3.21-.8-5.77-1.53-7.84-2.12-.79-.23-1.5-.43-2.12-.6-4.94-1.35-4.9-4.55-4.9-5.54,0-3.64,4.34-5.18,8.52-5,8.63.37,9.33,8.63,9.33,8.63l14.64-1.58-.05-.52c-.32-3.53-1.95-6.95-4.12-9.54-2.16-2.57-5.03-4.58-8.52-5.97-3.47-1.38-7.5-2.08-11.99-2.08s-8.71.75-12.13,2.22c-3.45,1.48-6.16,3.63-8.06,6.37-1.91,2.75-2.87,6.04-2.87,9.77,0,2.98.64,5.57,1.91,7.69,1.27,2.12,3.35,3.96,6.18,5.47,2.78,1.48,6.5,2.84,11.2,4.03,4.39,1.15,13.64,3.16,13.64,7.85,0,0,.51,5.91-7.65,5.91-9.22,0-12.05-6.46-12.58-9.21l-.1-.52-14.61,1.38.07.55c.73,6.05,3.78,11.05,8.26,14.35,4.46,3.29,10.36,4.95,17.68,4.95s13.66-1.71,18-5.09c4.37-3.41,6.59-8.15,6.59-14.1,0-3.02-.63-5.64-1.88-7.79-1.25-2.15-3.26-4.02-5.98-5.55Z"/>
    </g>
  </g>
</svg>