<?xml version="1.0" encoding="UTF-8"?> <svg xmlns="http://www.w3.org/2000/svg" width="499" height="84" viewBox="0 0 499 84" fill="none"><path d="M53.3341 63.448C53.3341 77.2976 41.1368 83.9832 27.2531 83.9832C14.2758 83.9832 4.66726 78.5861 0 68.7067L14.5288 60.6151C16.3544 65.8906 20.7645 68.9669 27.2531 68.9669C32.5865 68.9669 36.1997 67.1622 36.1997 63.448C36.1997 54.0639 2.72362 59.2092 2.72362 36.6175C2.72362 23.5318 14.0187 16.2208 27.3754 16.2208C37.9157 16.2208 46.9509 20.9549 52.0229 29.8144L37.7513 37.5199C36.8727 35.5208 35.4138 33.8288 33.5618 32.6614C31.7099 31.494 29.5496 30.9045 27.3585 30.9686C23.2183 30.9686 19.8327 32.7648 19.8327 36.244C19.8327 45.7289 53.3173 39.8281 53.3173 63.448M155.091 50.0936C155.091 39.3161 147.43 32.0052 137.024 32.0052C126.619 32.0052 119.118 39.3161 119.118 50.0936C119.118 60.8712 126.771 68.1863 137.024 68.1863C147.278 68.1863 155.091 60.8795 155.091 50.0936ZM171.837 18.0171V82.187H155.095V74.5823C150.423 80.3529 143.408 83.9496 133.938 83.9496C116.682 83.9496 102.406 69.1851 102.406 50.0601C102.406 30.935 116.682 16.1873 133.938 16.1873C143.408 16.1873 150.423 19.7672 155.091 25.5546V17.9877L171.837 18.0171ZM217.616 16.7287V35.2074C208.931 34.1876 197.889 38.0403 197.889 51.5164V82.1828H181.146V18.0129H197.889V29.0506C201.261 20.3212 209.441 16.7287 217.616 16.7287ZM300.901 33.919V60.6151C300.901 67.5567 305.961 67.6743 315.552 67.1622V82.1534C292.06 84.7177 284.142 77.9272 284.142 60.6026V33.8896H272.864V17.9877H284.142V0H300.901V17.9877H315.552V33.8938H300.901M358.987 16.7287V35.2074C350.302 34.1876 339.277 38.0403 339.277 51.5164V82.1828H322.534V18.0129H339.277V29.0506C342.637 20.3212 350.812 16.7287 358.987 16.7287ZM411.537 44.0711C410.881 40.3404 408.889 36.9725 405.93 34.5913C402.972 32.21 399.246 30.9767 395.444 31.1197C386.502 31.1197 380.388 35.8705 378.445 44.0879H411.571M397.025 68.9795C399.78 69.0861 402.524 68.5637 405.045 67.4521C407.566 66.3406 409.798 64.6695 411.571 62.5667L425.121 70.2553C419.101 78.9932 409.298 84 396.831 84C375.042 84 361.276 69.2355 361.276 50.1104C361.276 30.9854 375.16 16.2334 395.537 16.2334C414.75 16.2334 428.359 31.2246 428.359 50.1104C428.356 52.3931 428.14 54.6705 427.714 56.9135H378.702C381.033 65.3702 388.188 68.9669 396.996 68.9669L397.025 68.9795ZM483.182 44.0711C482.525 40.34 480.532 36.9721 477.573 34.5909C474.613 32.2097 470.887 30.9766 467.085 31.1197C458.125 31.1197 452.029 35.8705 450.085 44.0879H483.211M468.666 68.9795C471.421 69.0868 474.165 68.5646 476.686 67.453C479.207 66.3414 481.439 64.6699 483.211 62.5667L496.762 70.2553C490.665 78.9932 480.922 84 468.472 84C446.666 84 432.921 69.2355 432.921 50.1104C432.921 30.9854 446.801 16.2334 467.177 16.2334C486.373 16.2334 500 31.2246 500 50.1104C499.996 52.3931 499.78 54.6705 499.355 56.9135H450.342C452.691 65.3702 459.812 68.9669 468.636 68.9669L468.666 68.9795ZM84.504 33.919V60.6151C84.504 67.5567 89.5634 67.6743 99.1719 67.1622V82.1534C75.6796 84.7177 67.7617 77.9272 67.7617 60.6026V33.8896H56.4836V17.9877H67.7617V0H84.4998V17.9877H99.1719V33.8938H84.4998M266.097 43.513H246.72V17.4337C246.721 17.1676 246.632 16.9088 246.467 16.6993C246.301 16.4914 246.074 16.3403 245.818 16.267C245.568 16.1769 245.295 16.1769 245.046 16.267C244.796 16.3574 244.584 16.5308 244.447 16.758L221.617 54.3534C221.514 54.5363 221.453 54.74 221.44 54.9494C221.44 55.1637 221.495 55.3744 221.601 55.5611C221.707 55.7478 221.859 55.9043 222.043 56.0154C222.231 56.121 222.442 56.1786 222.658 56.1833H242.053V82.2751C242.05 82.5402 242.135 82.7989 242.295 83.0107C242.455 83.2225 242.681 83.3756 242.938 83.446C243.191 83.5216 243.457 83.5216 243.71 83.446C243.957 83.3495 244.167 83.1758 244.308 82.9508L267.122 45.3596C267.243 45.1767 267.306 44.9617 267.303 44.7426C267.307 44.53 267.252 44.3203 267.146 44.1356C267.04 43.951 266.886 43.7982 266.7 43.6934C266.518 43.5735 266.303 43.5107 266.085 43.513" fill="#002654"></path></svg> 